# xmcd
# 
# Track frame offsets:
#     187
#     26340
#     59500
#     88065
#     125915
#     142507
#     168960
#     195772
#     218077
#     241602
# 
# Disc length: 3557
# 
# Revision: 1
# Processed by: cddbd v1.5.2PL0 Copyright (c) Steve Scherf et al.
# Submitted via: BonkEnc v1.0.8
# 
DISCID=790de30a
DTITLE=LowBlow - カフェおじさん
DYEAR=1997
DGENRE=Fusion
TTITLE0=とらぬ狸
TTITLE1=カフェおじさん
TTITLE2=ぶたぶた
TTITLE3=バラード2
TTITLE4=ジャズ外山流（バイオレット将軍）
TTITLE5=ゴー・ラウンド
TTITLE6=スペース・マフィア
TTITLE7=ヨーデル
TTITLE8=ゴブリン・ダンス
TTITLE9=不器用な親父
EXTD=YEAR: 1997
EXTT0=
EXTT1=
EXTT2=
EXTT3=
EXTT4=
EXTT5=
EXTT6=
EXTT7=
EXTT8=
EXTT9=
PLAYORDER=
